{
    "asset" : {
        "generator" : "Khronos glTF Blender I/O v1.6.16",
        "version" : "2.0"
    },
    "scene" : 0,
    "scenes" : [
        {
            "name" : "Scene",
            "nodes" : [
                0
            ]
        }
    ],
    "nodes" : [
        {
            "mesh" : 0,
            "name" : "plane"
        }
    ],
    "materials" : [
        {
            "doubleSided" : true,
            "name" : "mPlane",
            "pbrMetallicRoughness" : {
                "baseColorTexture" : {
                    "index" : 0
                },
                "metallicFactor" : 0,
                "roughnessFactor" : 0.5
            }
        }
    ],
    "meshes" : [
        {
            "name" : "Bdy_low__mPlane",
            "primitives" : [
                {
                    "attributes" : {
                        "POSITION" : 0,
                        "NORMAL" : 1,
                        "TEXCOORD_0" : 2,
                        "COLOR_0" : 3
                    },
                    "indices" : 4,
                    "material" : 0
                }
            ]
        }
    ],
    "textures" : [
        {
            "sampler" : 0,
            "source" : 0
        }
    ],
    "images" : [
        {
            "bufferView" : 5,
            "mimeType" : "image/png",
            "name" : "Aircraft_diff"
        }
    ],
    "accessors" : [
        {
            "bufferView" : 0,
            "componentType" : 5126,
            "count" : 5668,
            "max" : [
                18.677309036254883,
                17.058568954467773,
                19.904329299926758
            ],
            "min" : [
                -18.839879989624023,
                -11.313610076904297,
                -19.904319763183594
            ],
            "type" : "VEC3"
        },
        {
            "bufferView" : 1,
            "componentType" : 5126,
            "count" : 5668,
            "type" : "VEC3"
        },
        {
            "bufferView" : 2,
            "componentType" : 5126,
            "count" : 5668,
            "type" : "VEC2"
        },
        {
            "bufferView" : 3,
            "componentType" : 5123,
            "count" : 5668,
            "normalized" : true,
            "type" : "VEC4"
        },
        {
            "bufferView" : 4,
            "componentType" : 5123,
            "count" : 21312,
            "type" : "SCALAR"
        }
    ],
    "bufferViews" : [
        {
            "buffer" : 0,
            "byteLength" : 68016,
            "byteOffset" : 0
        },
        {
            "buffer" : 0,
            "byteLength" : 68016,
            "byteOffset" : 68016
        },
        {
            "buffer" : 0,
            "byteLength" : 45344,
            "byteOffset" : 136032
        },
        {
            "buffer" : 0,
            "byteLength" : 45344,
            "byteOffset" : 181376
        },
        {
            "buffer" : 0,
            "byteLength" : 42624,
            "byteOffset" : 226720
        },
        {
            "buffer" : 0,
            "byteLength" : 268846,
            "byteOffset" : 269344
        }
    ],
    "samplers" : [
        {
            "magFilter" : 9729,
            "minFilter" : 9987
        }
    ],
    "buffers" : [
        {
            "byteLength" : 538192,
            "uri" : "data:application/octet-stream;base64,"
        }
    ]
}
