{
    "asset" : {
        "generator" : "Khronos glTF Blender I/O v1.6.16",
        "version" : "2.0"
    },
    "scene" : 0,
    "scenes" : [
        {
            "name" : "Scene",
            "nodes" : [
                0
            ]
        }
    ],
    "nodes" : [
        {
            "mesh" : 0,
            "name" : "plane"
        }
    ],
    "materials" : [
        {
            "doubleSided" : true,
            "name" : "mPlane",
            "pbrMetallicRoughness" : {
                "baseColorTexture" : {
                    "index" : 0
                },
                "metallicFactor" : 0,
                "roughnessFactor" : 0.5
            }
        }
    ],
    "meshes" : [
        {
            "name" : "Bdy_low__mPlane",
            "primitives" : [
                {
                    "attributes" : {
                        "POSITION" : 0,
                        "NORMAL" : 1,
                        "TEXCOORD_0" : 2,
                        "COLOR_0" : 3
                    },
                    "indices" : 4,
                    "material" : 0
                }
            ]
        }
    ],
    "textures" : [
        {
            "sampler" : 0,
            "source" : 0
        }
    ],
    "images" : [
        {
            "bufferView" : 5,
            "mimeType" : "image/png",
            "name" : "Aircraft_diff"
        }
    ],
    "accessors" : [
        {
            "bufferView" : 0,
            "componentType" : 5126,
            "count" : 5670,
            "max" : [
                0.4978330433368683,
                0.45468631386756897,
                0.5305383801460266
            ],
            "min" : [
                -0.5021662712097168,
                -0.3015577495098114,
                -0.5305381417274475
            ],
            "type" : "VEC3"
        },
        {
            "bufferView" : 1,
            "componentType" : 5126,
            "count" : 5670,
            "type" : "VEC3"
        },
        {
            "bufferView" : 2,
            "componentType" : 5126,
            "count" : 5670,
            "type" : "VEC2"
        },
        {
            "bufferView" : 3,
            "componentType" : 5123,
            "count" : 5670,
            "normalized" : true,
            "type" : "VEC4"
        },
        {
            "bufferView" : 4,
            "componentType" : 5123,
            "count" : 21312,
            "type" : "SCALAR"
        }
    ],
    "bufferViews" : [
        {
            "buffer" : 0,
            "byteLength" : 68040,
            "byteOffset" : 0
        },
        {
            "buffer" : 0,
            "byteLength" : 68040,
            "byteOffset" : 68040
        },
        {
            "buffer" : 0,
            "byteLength" : 45360,
            "byteOffset" : 136080
        },
        {
            "buffer" : 0,
            "byteLength" : 45360,
            "byteOffset" : 181440
        },
        {
            "buffer" : 0,
            "byteLength" : 42624,
            "byteOffset" : 226800
        },
        {
            "buffer" : 0,
            "byteLength" : 268846,
            "byteOffset" : 269424
        }
    ],
    "samplers" : [
        {
            "magFilter" : 9729,
            "minFilter" : 9987
        }
    ],
    "buffers" : [
        {
            "byteLength" : 538272,
            "uri" : "data:application/octet-stream;base64,"
        }
    ]
}
